<svg width="64" height="64" viewBox="0 0 64 64" fill="none" xmlns="http://www.w3.org/2000/svg">
<path d="M54.1365 24.7606C53.9422 24.7606 53.7506 24.7707 53.5603 24.786C53.206 23.7204 52.7721 22.683 52.2622 21.6825C53.7681 20.385 54.7243 18.466 54.7243 16.3269C54.7243 12.4281 51.5522 9.256 47.6533 9.256C45.5143 9.256 43.5955 10.2122 42.2978 11.7181C41.2517 11.185 40.1654 10.7349 39.0488 10.3719C39.0618 10.1974 39.0705 10.0217 39.0705 9.84373C39.0705 5.94528 35.8989 2.77344 32 2.77344C28.1011 2.77344 24.9295 5.94528 24.9295 9.84394C24.9295 10.0219 24.9385 10.1977 24.9513 10.3722C23.8346 10.7351 22.7481 11.1852 21.702 11.7183C20.4043 10.2124 18.4856 9.25621 16.3465 9.25621C12.4476 9.25621 9.27596 12.4283 9.27596 16.3271C9.27596 18.4662 10.2321 20.385 11.7378 21.6827C11.228 22.6832 10.794 23.7206 10.4397 24.7862C10.248 24.77 10.0558 24.7616 9.86348 24.7609C5.9646 24.7609 2.79297 27.9327 2.79297 31.8314C2.79297 35.73 5.96481 38.9023 9.86348 38.9023C10.025 38.9023 10.1848 38.8948 10.3437 38.8842C10.7179 40.0615 11.1888 41.206 11.7515 42.3058C10.2379 43.6035 9.27574 45.5276 9.27574 47.6733C9.27574 51.5722 12.4476 54.7442 16.3463 54.7442C18.4981 54.7442 20.4275 53.7765 21.7254 52.255C22.7652 52.7833 23.8446 53.2298 24.9538 53.5903C24.9389 53.7774 24.9291 53.966 24.9291 54.1567C24.9295 58.0549 28.1011 61.2268 32 61.2268C35.8989 61.2268 39.0705 58.0549 39.0705 54.1563C39.0705 53.9653 39.0607 53.777 39.0458 53.5899C40.155 53.2296 41.2343 52.7831 42.2739 52.2546C43.5719 53.7763 45.501 54.7438 47.6531 54.7438C51.552 54.7438 54.7241 51.5717 54.7241 47.6729C54.7241 45.5271 53.7621 43.6033 52.2483 42.3054C52.8111 41.2056 53.282 40.0611 53.6561 38.8837C53.8151 38.8944 53.9748 38.9019 54.1365 38.9019C58.0354 38.9019 61.2071 35.7298 61.2071 31.8309C61.2071 27.9321 58.0352 24.7606 54.1365 24.7606ZM54.1365 37.7268C50.8856 37.7268 48.2409 35.0821 48.2409 31.8314C48.2409 28.5808 50.8856 25.9361 54.1365 25.9361C57.3871 25.9361 60.0318 28.5808 60.0318 31.8314C60.0318 35.0821 57.3871 37.7268 54.1365 37.7268ZM47.6533 10.4317C50.9043 10.4317 53.549 13.0764 53.549 16.3274C53.549 19.5779 50.9043 22.2226 47.6533 22.2226C44.4028 22.2226 41.7581 19.5779 41.7581 16.3274C41.7579 13.0764 44.4026 10.4317 47.6533 10.4317ZM26.1048 9.84394C26.1048 6.59338 28.7495 3.94869 32 3.94869C35.2506 3.94869 37.8953 6.59338 37.8953 9.84394C37.8953 13.0949 35.2506 15.7396 32 15.7396C28.7495 15.7396 26.1048 13.0949 26.1048 9.84394ZM10.4512 16.3271C10.4512 13.0762 13.0959 10.4315 16.3465 10.4315C19.5975 10.4315 22.2421 13.0762 22.2421 16.3271C22.2421 19.5777 19.5975 22.2224 16.3465 22.2224C13.0959 22.2224 10.4512 19.5779 10.4512 16.3271ZM3.96822 31.8311C3.96822 28.5806 6.61292 25.9359 9.86348 25.9359C13.114 25.9359 15.7587 28.5806 15.7587 31.8311C15.7587 35.0821 13.114 37.7266 9.86348 37.7266C6.61292 37.7266 3.96822 35.0821 3.96822 31.8311ZM10.4512 47.6731C10.4512 44.4225 13.0959 41.7778 16.3465 41.7778C19.5975 41.7778 22.2421 44.4225 22.2421 47.6731C22.2421 50.924 19.5975 53.5687 16.3465 53.5687C13.0959 53.5685 10.4512 50.9238 10.4512 47.6731ZM37.8953 54.1563C37.8953 57.4068 35.2506 60.0515 32 60.0515C28.7495 60.0515 26.1048 57.4068 26.1048 54.1563C26.1048 50.9053 28.7495 48.2606 32 48.2606C35.2506 48.2606 37.8953 50.9053 37.8953 54.1563ZM53.5488 47.6731C53.5488 50.924 50.9041 53.5687 47.6531 53.5687C44.4026 53.5687 41.7579 50.924 41.7579 47.6731C41.7579 44.4225 44.4026 41.7778 47.6531 41.7778C50.9041 41.7778 53.5488 44.4223 53.5488 47.6731ZM51.2834 41.6082C50.1875 40.9487 48.9324 40.6009 47.6533 40.6023C43.7545 40.6023 40.5828 43.7742 40.5828 47.6729C40.5815 48.946 40.9262 50.1955 41.58 51.288C40.6983 51.7265 39.7872 52.1031 38.8533 52.4153C38.0757 49.3554 35.2984 47.0851 32.0002 47.0851C28.7021 47.0851 25.9247 49.3554 25.1471 52.4153C24.2132 52.1031 23.3022 51.7265 22.4205 51.288C23.0742 50.1955 23.4188 48.946 23.4176 47.6729C23.4176 43.774 20.2456 40.6023 16.3467 40.6023C15.0677 40.601 13.8127 40.9487 12.7168 41.608C12.2476 40.6706 11.8483 39.6998 11.5224 38.7035C14.6232 37.9549 16.9344 35.1585 16.9344 31.8309C16.9344 28.536 14.669 25.7607 11.6139 24.9799C11.9186 24.0911 12.2819 23.2235 12.7014 22.3828C13.8009 23.048 15.0617 23.3989 16.3467 23.3974C20.2456 23.3974 23.4176 20.2256 23.4176 16.3269C23.4191 15.0419 23.0682 13.781 22.403 12.6815C23.2874 12.2406 24.2015 11.8618 25.1386 11.5481C25.9034 14.626 28.6891 16.9145 32.0002 16.9145C35.3114 16.9145 38.0971 14.626 38.8619 11.5481C39.799 11.8618 40.713 12.2404 41.5975 12.6813C40.9323 13.7808 40.5814 15.0417 40.5828 16.3267C40.5828 20.2256 43.7547 23.3972 47.6533 23.3972C48.9384 23.3987 50.1993 23.0478 51.2988 22.3826C51.7183 23.2233 52.0817 24.0909 52.3864 24.9797C49.3312 25.7605 47.0656 28.5358 47.0656 31.8307C47.0656 35.1583 49.3769 37.9547 52.4777 38.7033C52.1519 39.6997 51.7527 40.6707 51.2834 41.6082Z" fill="white"/>
</svg>
