<svg width="64" height="64" viewBox="0 0 64 64" fill="none" xmlns="http://www.w3.org/2000/svg">
<path d="M32.0002 15.4188C33.1247 15.4188 34.0397 14.504 34.0397 13.3793C34.0397 12.2549 33.1247 11.3401 32.0002 11.3401C30.8757 11.3401 29.9607 12.2549 29.9607 13.3793C29.9607 14.504 30.8757 15.4188 32.0002 15.4188ZM31.1727 13.3793C31.1727 12.9232 31.5437 12.5522 32 12.5522C32.4563 12.5522 32.8273 12.9232 32.8273 13.3793C32.8273 13.8354 32.4563 14.2066 32 14.2066C31.7806 14.2064 31.5703 14.1192 31.4152 13.9641C31.2601 13.809 31.1729 13.5987 31.1727 13.3793Z" fill="white"/>
<path d="M9.06666 56.9601C12.3575 56.9601 15.0688 54.4389 15.3749 51.2268H25.6913C25.9976 54.4389 28.7093 56.9601 32.0002 56.9601C35.2911 56.9601 38.0023 54.4389 38.3085 51.2268H48.6249C48.9312 54.4389 51.6425 56.9601 54.9333 56.9601C58.4288 56.9601 61.2727 54.1164 61.2727 50.6209C61.2727 47.1254 58.4288 44.2815 54.9333 44.2815C53.9319 44.2815 52.9875 44.5213 52.1446 44.9366L47.2866 37.0476C48.8139 35.889 49.8063 34.0607 49.8063 32.0003C49.8063 28.5049 46.9623 25.6609 43.4669 25.6609C42.4655 25.6609 41.5211 25.9007 40.6782 26.316L35.8202 18.427C37.3472 17.2684 38.3394 15.4399 38.3394 13.3797C38.3394 9.88426 35.4957 7.04053 32.0002 7.04053C28.5047 7.04053 25.6608 9.88426 25.6608 13.3797C25.6608 15.4401 26.6532 17.2684 28.1805 18.427L23.3222 26.316C22.4791 25.9007 21.5349 25.6609 20.5333 25.6609C17.0379 25.6609 14.1939 28.5049 14.1939 32.0003C14.1939 34.0607 15.1863 35.8892 16.7136 37.0476L11.8556 44.9366C11.0125 44.5213 10.0683 44.2815 9.06666 44.2815C5.5712 44.2815 2.72725 47.1254 2.72725 50.6209C2.72725 54.1164 5.5712 56.9601 9.06666 56.9601ZM14.1939 50.6209C14.1939 53.4482 11.8938 55.7482 9.06688 55.7482C6.23957 55.7482 3.93941 53.448 3.93941 50.6209C3.93941 47.7936 6.23957 45.4934 9.06688 45.4934C11.8938 45.4934 14.1939 47.7936 14.1939 50.6209ZM37.1273 50.6209C37.1273 53.4482 34.8271 55.7482 32.0002 55.7482C29.1729 55.7482 26.8727 53.448 26.8727 50.6209C26.8727 47.7936 29.1729 45.4934 32.0002 45.4934C34.8273 45.4934 37.1273 47.7936 37.1273 50.6209ZM49.8061 50.6209C49.8061 47.7936 52.1062 45.4934 54.9331 45.4934C57.7604 45.4934 60.0606 47.7936 60.0606 50.6209C60.0606 53.4482 57.7604 55.7482 54.9331 55.7482C52.1062 55.7482 49.8061 53.448 49.8061 50.6209ZM51.1134 45.5734C49.738 46.6171 48.7974 48.2034 48.6249 50.0148H38.3085C38.1359 48.2036 37.1953 46.6173 35.8199 45.5734L40.6782 37.6844C41.5211 38.0995 42.4655 38.3393 43.4669 38.3393C44.4683 38.3393 45.4127 38.0995 46.2556 37.6842L51.1134 45.5734ZM43.4667 37.1274C40.6394 37.1274 38.3392 34.8272 38.3392 32.0001C38.3392 29.1728 40.6394 26.8726 43.4667 26.8726C46.294 26.8726 48.5941 29.1728 48.5941 32.0001C48.5941 34.8274 46.294 37.1274 43.4667 37.1274ZM37.1273 13.3793C37.1273 16.2066 34.8271 18.5068 32.0002 18.5068C29.1729 18.5068 26.8727 16.2066 26.8727 13.3793C26.8727 10.552 29.1729 8.25205 32.0002 8.25205C34.8273 8.25205 37.1273 10.5522 37.1273 13.3793ZM29.2113 19.0638C30.0542 19.4791 30.9986 19.7189 32 19.7189C33.0014 19.7189 33.9458 19.4791 34.7887 19.0638L39.6467 26.9528C38.1195 28.1115 37.127 29.9399 37.127 32.0003C37.127 34.0607 38.1195 35.889 39.6467 37.0476L34.7887 44.9366C33.9458 44.5213 33.0014 44.2815 32 44.2815C30.9986 44.2815 30.0542 44.5213 29.2113 44.9366L24.3531 37.0476C25.8803 35.889 26.8727 34.0607 26.8727 32.0003C26.8727 29.9399 25.8803 28.1117 24.3533 26.9531L29.2113 19.0638ZM20.5333 26.8728C23.3606 26.8728 25.6608 29.173 25.6608 32.0003C25.6608 34.8276 23.3606 37.1276 20.5333 37.1276C17.706 37.1276 15.4059 34.8274 15.4059 32.0001C15.4059 29.173 17.706 26.8728 20.5333 26.8728ZM17.7446 37.6846C18.5875 38.0997 19.5317 38.3395 20.5333 38.3395C21.5347 38.3395 22.4791 38.0997 23.322 37.6844L28.1803 45.5734C26.8047 46.6171 25.8641 48.2034 25.6915 50.0148H15.3751C15.2026 48.2036 14.262 46.6171 12.8866 45.5734L17.7446 37.6846Z" fill="white"/>
</svg>
