<svg width="60" height="60" viewBox="0 0 60 60" fill="none" xmlns="http://www.w3.org/2000/svg">
<path d="M22.9556 7.57945C18.7166 3.34005 11.8186 3.34005 7.57939 7.57945C3.33999 11.8187 3.33999 18.7167 7.57939 22.9557C9.69899 25.0753 12.4834 26.1351 15.2674 26.1351C17.8076 26.1351 20.3464 25.2499 22.3818 23.4853L26.362 27.4655L23.4754 27.4971C23.3072 27.498 23.1463 27.5656 23.0281 27.6852C22.9098 27.8047 22.8439 27.9663 22.8448 28.1345C22.8457 28.3026 22.9134 28.4635 23.0329 28.5818C23.1524 28.7 23.314 28.766 23.4822 28.7651H23.489L27.3958 28.7222C27.6452 28.7188 27.8869 28.6349 28.0848 28.4831C28.1224 28.4589 28.1584 28.4311 28.1912 28.3983C28.1962 28.3935 28.1994 28.3875 28.204 28.3825C28.3157 28.2727 28.4042 28.1415 28.464 27.9967C28.5239 27.852 28.5539 27.6967 28.5524 27.5401L28.5094 23.6335C28.5075 23.4665 28.4399 23.3071 28.3212 23.1897C28.2025 23.0723 28.0423 23.0064 27.8754 23.0065H27.8682C27.7849 23.0074 27.7027 23.0247 27.6261 23.0574C27.5496 23.0901 27.4802 23.1376 27.422 23.1971C27.3638 23.2566 27.3179 23.327 27.2869 23.4043C27.2559 23.4816 27.2404 23.5642 27.2414 23.6475L27.274 26.5847L23.2916 22.6023C27.1904 18.3415 27.0794 11.7031 22.9556 7.57945ZM15.6124 14.9229C15.4935 14.804 15.3323 14.7372 15.1642 14.7372C14.9961 14.7372 14.8349 14.804 14.716 14.9229C14.5971 15.0417 14.5303 15.2029 14.5303 15.3711C14.5303 15.5392 14.5971 15.7004 14.716 15.8193L21.4838 22.5871C19.7494 24.0649 17.5714 24.8725 15.2676 24.8725C12.702 24.8725 10.2902 23.8735 8.47599 22.0593C4.73099 18.3143 4.73099 12.2209 8.47599 8.47585C10.3484 6.60345 12.8078 5.66725 15.2676 5.66725C17.7274 5.66725 20.1868 6.60345 22.0592 8.47585C25.6886 12.1053 25.8004 17.9401 22.3954 21.7057L15.6124 14.9229ZM52.4204 37.0445C48.297 32.9207 41.6584 32.8097 37.3978 36.7085L33.4154 32.7263L36.3528 32.7585C36.7036 32.7513 36.9898 32.4815 36.9936 32.1315C36.9954 31.9633 36.9303 31.8013 36.8127 31.6811C36.6951 31.5609 36.5346 31.4923 36.3664 31.4905L32.4598 31.4477H32.4464C32.139 31.4477 31.849 31.5657 31.6288 31.7813C31.6236 31.7863 31.6202 31.7923 31.6154 31.7973C31.611 31.8015 31.6056 31.8045 31.6014 31.8087C31.5693 31.841 31.5408 31.8767 31.5164 31.9151C31.3647 32.1131 31.2809 32.3548 31.2776 32.6043L31.2346 36.5109C31.2327 36.679 31.2977 36.8409 31.4153 36.9611C31.5328 37.0814 31.6933 37.15 31.8614 37.1519H31.8686C32.0355 37.1519 32.1957 37.086 32.3144 36.9686C32.4331 36.8513 32.5007 36.6918 32.5026 36.5249L32.5344 33.6381L36.5146 37.6183C32.8162 41.8847 32.9908 48.3675 37.0444 52.4209C39.164 54.5405 41.9484 55.6003 44.7324 55.6003C47.5166 55.6003 50.301 54.5405 52.4204 52.4209C56.6598 48.1815 56.6598 41.2835 52.4204 37.0445ZM44.7324 54.3375C42.1668 54.3375 39.755 53.3385 37.9408 51.5243C34.3818 47.9653 34.2078 42.2867 37.4134 38.5169L44.1808 45.2841C44.3046 45.4079 44.4668 45.4699 44.629 45.4699C44.7912 45.4699 44.9534 45.4079 45.0772 45.2841C45.1361 45.2252 45.1827 45.1553 45.2146 45.0784C45.2465 45.0015 45.2629 44.9191 45.2629 44.8359C45.2629 44.7526 45.2465 44.6702 45.2146 44.5933C45.1827 44.5164 45.1361 44.4465 45.0772 44.3877L38.2942 37.6049C40.117 35.9567 42.4244 35.1323 44.7322 35.1323C47.192 35.1323 49.6514 36.0685 51.5238 37.9409C55.2688 41.6859 55.2688 47.7793 51.5238 51.5243C49.7098 53.3383 47.298 54.3375 44.7324 54.3375ZM52.4204 7.57945C48.1814 3.34005 41.2832 3.34005 37.0442 7.57945C32.9906 11.6329 32.816 18.1157 36.5144 22.3821L32.5342 26.3623L32.5024 23.4755C32.5005 23.3085 32.4329 23.1491 32.3142 23.0317C32.1955 22.9143 32.0353 22.8484 31.8684 22.8485H31.8612C31.7779 22.8494 31.6957 22.8667 31.6191 22.8994C31.5426 22.9321 31.4732 22.9796 31.415 23.0391C31.3568 23.0986 31.3109 23.169 31.2799 23.2463C31.2489 23.3236 31.2334 23.4062 31.2344 23.4895L31.2774 27.3957C31.2806 27.645 31.3643 27.8867 31.516 28.0847C31.5402 28.1225 31.5682 28.1585 31.6012 28.1915C31.6056 28.1959 31.6112 28.1991 31.6158 28.2033C31.6206 28.2081 31.6238 28.2141 31.6288 28.2189C31.8468 28.4333 32.1406 28.5532 32.4464 28.5525H32.4594L36.3662 28.5097C36.5344 28.5078 36.6949 28.4392 36.8125 28.319C36.9301 28.1988 36.9952 28.0368 36.9934 27.8687C36.9896 27.5187 36.7076 27.2417 36.3526 27.2417L33.4154 27.2739L37.3976 23.2917C39.4682 25.1865 42.0998 26.1351 44.7322 26.1351C47.5164 26.1351 50.3008 25.0753 52.4202 22.9557C56.6598 18.7167 56.6598 11.8187 52.4204 7.57945ZM44.7324 24.8727C42.33 24.8727 40.0626 23.9965 38.2942 22.3955L45.0772 15.6125C45.136 15.5536 45.1827 15.4837 45.2146 15.4068C45.2464 15.3299 45.2628 15.2475 45.2628 15.1643C45.2628 15.081 45.2464 14.9986 45.2146 14.9217C45.1827 14.8448 45.136 14.7749 45.0772 14.7161C45.0183 14.6572 44.9485 14.6105 44.8716 14.5787C44.7947 14.5468 44.7122 14.5304 44.629 14.5304C44.5457 14.5304 44.4633 14.5468 44.3864 14.5787C44.3095 14.6105 44.2396 14.6572 44.1808 14.7161L37.4134 21.4833C34.2078 17.7137 34.3818 12.0351 37.9408 8.47605C39.8132 6.60365 42.2726 5.66745 44.7324 5.66745C47.1922 5.66745 49.6516 6.60365 51.524 8.47605C55.269 12.2211 55.269 18.3145 51.524 22.0595C49.7098 23.8735 47.298 24.8727 44.7324 24.8727ZM7.57959 52.4207C9.69899 54.5403 12.4834 55.6001 15.2676 55.6001C18.0518 55.6001 20.8362 54.5403 22.9556 52.4207C27.0794 48.2971 27.1904 41.6587 23.2916 37.3979L27.2742 33.4153L27.2416 36.3525C27.2397 36.5206 27.3047 36.6825 27.4223 36.8027C27.5398 36.923 27.7003 36.9916 27.8684 36.9935H27.8756C28.0425 36.9935 28.2027 36.9276 28.3214 36.8102C28.4401 36.6929 28.5077 36.5334 28.5096 36.3665L28.5526 32.4597C28.5541 32.3031 28.524 32.1478 28.4642 32.0031C28.4043 31.8584 28.3159 31.7272 28.2042 31.6175C28.1996 31.6125 28.1964 31.6067 28.1914 31.6017C28.159 31.5697 28.1234 31.5412 28.085 31.5167C27.8871 31.3648 27.6454 31.2809 27.396 31.2775L23.4894 31.2347C23.406 31.2333 23.3232 31.2485 23.2458 31.2794C23.1684 31.3103 23.0978 31.3562 23.0382 31.4145C22.9786 31.4728 22.9312 31.5423 22.8986 31.6191C22.8661 31.6958 22.8491 31.7783 22.8486 31.8617C22.8468 32.0298 22.9118 32.1918 23.0295 32.312C23.1471 32.4322 23.3076 32.5008 23.4758 32.5027L26.3624 32.5343L22.3822 36.5147C18.116 32.8161 11.633 32.9907 7.57959 37.0445C3.34019 41.2835 3.34019 48.1815 7.57959 52.4207ZM15.2676 35.1323C17.483 35.1323 19.6968 35.8945 21.4832 37.4135L14.716 44.1809C14.6571 44.2397 14.6104 44.3096 14.5786 44.3865C14.5467 44.4634 14.5303 44.5458 14.5303 44.6291C14.5303 44.7123 14.5467 44.7947 14.5786 44.8716C14.6104 44.9485 14.6571 45.0184 14.716 45.0773C14.7748 45.1361 14.8447 45.1828 14.9216 45.2147C14.9985 45.2465 15.081 45.2629 15.1642 45.2629C15.2474 45.2629 15.3299 45.2465 15.4068 45.2147C15.4837 45.1828 15.5535 45.1361 15.6124 45.0773L22.3952 38.2945C25.8004 42.0601 25.6886 47.8949 22.0592 51.5243C20.245 53.3385 17.8332 54.3375 15.2676 54.3375C12.702 54.3375 10.2902 53.3385 8.47599 51.5243C4.73099 47.7793 4.73099 41.6859 8.47599 37.9409C10.3484 36.0685 12.8078 35.1323 15.2676 35.1323Z" fill="white"/>
</svg>
