<svg width="31" height="25" viewBox="0 0 31 25" fill="none" xmlns="http://www.w3.org/2000/svg">
<path d="M27.7407 6.65625C28.9126 5.77734 29.9672 4.72266 30.7876 3.49219C29.7329 3.96094 28.5024 4.3125 27.2719 4.42969C28.561 3.66797 29.4985 2.49609 29.9672 1.03125C28.7954 1.73438 27.4477 2.26172 26.1001 2.55469C24.9282 1.32422 23.3462 0.621094 21.5883 0.621094C18.1899 0.621094 15.436 3.375 15.436 6.77344C15.436 7.24219 15.4946 7.71094 15.6118 8.17969C10.5141 7.88672 5.94381 5.42578 2.89693 1.73438C2.36959 2.61328 2.07662 3.66797 2.07662 4.83984C2.07662 6.94922 3.13131 8.82422 4.83053 9.9375C3.83443 9.87891 2.83834 9.64453 2.01803 9.17578V9.23438C2.01803 12.2227 4.1274 14.6836 6.9399 15.2695C6.47115 15.3867 5.88522 15.5039 5.35787 15.5039C4.94772 15.5039 4.59615 15.4453 4.186 15.3867C4.94772 17.8477 7.23287 19.6055 9.92818 19.6641C7.81881 21.3047 5.18209 22.3008 2.311 22.3008C1.78365 22.3008 1.3149 22.2422 0.846153 22.1836C3.54147 23.9414 6.76412 24.9375 10.2797 24.9375C21.5883 24.9375 27.7407 15.6211 27.7407 7.47656C27.7407 7.18359 27.7407 6.94922 27.7407 6.65625Z" fill="#EBF2F8"/>
</svg>
